<svg xmlns="http://www.w3.org/2000/svg" viewBox="0 0 64 64">
  <rect width="64" height="64" rx="14" fill="#4CAF50"/>
  <g transform="translate(12,14) scale(0.625)">
    <path d="M28 8a16 16 0 0 0-11.3 4.7l-8 8a16 16 0 0 0 22.6 22.6l4-4a2 2 0 0 0-2.83-2.83l-4 4a12 12 0 0 1-17-17l8-8a12 12 0 0 1 17 0 2 2 0 0 0 2.83-2.83A16 16 0 0 0 28 8z" fill="white"/>
    <path d="M36 56a16 16 0 0 0 11.3-4.7l8-8a16 16 0 0 0-22.6-22.6l-4 4a2 2 0 0 0 2.83 2.83l4-4a12 12 0 0 1 17 17l-8 8a12 12 0 0 1-17 0 2 2 0 0 0-2.83 2.83A16 16 0 0 0 36 56z" fill="#29B6F6"/>
  </g>
</svg>
